<svg width="64" height="64" viewBox="0 0 64 64" fill="none" xmlns="http://www.w3.org/2000/svg">
<g clip-path="url(#clip0_611_180)">
<g filter="url(#filter0_d_611_180)">
<rect width="64" height="64" fill="url(#paint0_linear_611_180)"/>
</g>
<path d="M30.0574 12.5107C31.2654 11.8298 32.7344 11.8298 33.9426 12.5107L48.9712 20.982C49.6062 21.3399 50 22.0189 50 22.7558V39.466C50 40.9398 49.2124 42.2979 47.9426 43.0136L33.9426 50.905C32.7344 51.586 31.2654 51.586 30.0574 50.905L16.0574 43.0136C14.7876 42.2979 14 40.9398 14 39.466V22.7558C14 22.0189 14.3938 21.3399 15.0287 20.982L30.0574 12.5107Z" stroke="url(#paint1_linear_611_180)" stroke-width="3" stroke-linecap="round" stroke-linejoin="round"/>
<path d="M14 21.5618L32 31.7079M32 31.7079L50 21.5618M32 31.7079V52" stroke="url(#paint2_linear_611_180)" stroke-width="3" stroke-linejoin="round"/>
<path d="M23 26.6348L41 16.4888" stroke="url(#paint3_linear_611_180)" stroke-width="3" stroke-linecap="round" stroke-linejoin="round"/>
<path d="M20 32.3737L26 35.7663" stroke="url(#paint4_linear_611_180)" stroke-width="3" stroke-linecap="round" stroke-linejoin="round"/>
</g>
<defs>
<filter id="filter0_d_611_180" x="-4" y="-4" width="72" height="72" filterUnits="userSpaceOnUse" color-interpolation-filters="sRGB">
<feFlood flood-opacity="0" result="BackgroundImageFix"/>
<feColorMatrix in="SourceAlpha" type="matrix" values="0 0 0 0 0 0 0 0 0 0 0 0 0 0 0 0 0 0 127 0" result="hardAlpha"/>
<feOffset/>
<feGaussianBlur stdDeviation="2"/>
<feComposite in2="hardAlpha" operator="out"/>
<feColorMatrix type="matrix" values="0 0 0 0 0 0 0 0 0 0 0 0 0 0 0 0 0 0 0.1 0"/>
<feBlend mode="normal" in2="BackgroundImageFix" result="effect1_dropShadow_611_180"/>
<feBlend mode="normal" in="SourceGraphic" in2="effect1_dropShadow_611_180" result="shape"/>
</filter>
<linearGradient id="paint0_linear_611_180" x1="32" y1="64" x2="32" y2="0" gradientUnits="userSpaceOnUse">
<stop stop-color="#FD5900"/>
<stop offset="1" stop-color="#FFDE00"/>
</linearGradient>
<linearGradient id="paint1_linear_611_180" x1="32" y1="8" x2="32" y2="55" gradientUnits="userSpaceOnUse">
<stop stop-color="white"/>
<stop offset="1" stop-color="white" stop-opacity="0.5"/>
</linearGradient>
<linearGradient id="paint2_linear_611_180" x1="32" y1="8" x2="32" y2="57" gradientUnits="userSpaceOnUse">
<stop stop-color="white"/>
<stop offset="1" stop-color="white" stop-opacity="0.5"/>
</linearGradient>
<linearGradient id="paint3_linear_611_180" x1="32" y1="8.5" x2="32" y2="55.5" gradientUnits="userSpaceOnUse">
<stop stop-color="white"/>
<stop offset="1" stop-color="white" stop-opacity="0.5"/>
</linearGradient>
<linearGradient id="paint4_linear_611_180" x1="31.5" y1="9" x2="32.5" y2="56.5" gradientUnits="userSpaceOnUse">
<stop stop-color="white"/>
<stop offset="1" stop-color="white" stop-opacity="0.5"/>
</linearGradient>
<clipPath id="clip0_611_180">
<rect width="64" height="64" fill="white"/>
</clipPath>
</defs>
</svg>
