<svg width="64" height="64" viewBox="0 0 64 64" fill="none" xmlns="http://www.w3.org/2000/svg">
<rect width="64" height="64" fill="url(#paint0_linear_610_91)"/>
<g filter="url(#filter0_d_610_91)">
<path opacity="0.4" d="M36.8359 18.9799C35.8839 18.804 35.0094 19.4116 34.8283 20.3409C34.647 21.2703 35.2565 22.1777 36.1827 22.3595C38.9712 22.9032 41.1243 25.0617 41.6701 27.8598V27.8618C41.8253 28.6673 42.5344 29.2529 43.3511 29.2529C43.4606 29.2529 43.5702 29.2429 43.6817 29.2229C44.6079 29.0369 45.2173 28.1316 45.036 27.2002C44.2215 23.0211 41.0048 19.7933 36.8359 18.9799Z" fill="url(#paint1_linear_610_91)"/>
<path opacity="0.4" d="M36.7121 12.0159C36.266 11.9519 35.818 12.0838 35.4614 12.3676C35.0949 12.6554 34.8658 13.0711 34.816 13.5368C34.7105 14.4782 35.3896 15.3296 36.3298 15.4355C42.813 16.159 47.8522 21.2095 48.5813 27.7131C48.6788 28.5845 49.4099 29.242 50.2822 29.242C50.348 29.242 50.4117 29.238 50.4775 29.23C50.9335 29.18 51.3398 28.9542 51.6268 28.5945C51.9115 28.2347 52.0409 27.787 51.9893 27.3293C51.0809 19.2149 44.8008 12.9172 36.7121 12.0159Z" fill="url(#paint2_linear_610_91)"/>
<path d="M43.209 37.3461C41.9125 37.0702 40.8867 37.6699 39.9785 38.1935C39.0483 38.7331 37.2776 40.1622 36.2658 39.7944C31.0751 37.6679 26.1933 33.141 24.08 27.9526C23.7075 26.9193 25.1356 25.1465 25.6714 24.2111C26.1953 23.3038 26.7848 22.2705 26.5159 20.9714C26.2729 19.8022 23.1299 15.8189 22.0185 14.7297C21.2835 14.0101 20.5346 13.6144 19.7638 13.5485C16.8657 13.4265 13.6291 17.2779 13.0614 18.1993C11.6373 20.1639 11.6472 22.7781 13.0853 25.9479C16.551 34.4621 29.659 47.3113 38.2396 50.8928C39.8211 51.6302 41.2711 52.0001 42.5718 52.0001C43.8445 52.0001 44.9778 51.6462 45.9517 50.9448C46.6848 50.5231 50.7123 47.1393 50.6046 44.1755C50.5428 43.4199 50.1464 42.6644 49.4335 41.933C48.3459 40.8157 44.3743 37.5919 43.209 37.3461Z" fill="url(#paint3_linear_610_91)"/>
</g>
<defs>
<filter id="filter0_d_610_91" x="4" y="6" width="56.0005" height="56.0001" filterUnits="userSpaceOnUse" color-interpolation-filters="sRGB">
<feFlood flood-opacity="0" result="BackgroundImageFix"/>
<feColorMatrix in="SourceAlpha" type="matrix" values="0 0 0 0 0 0 0 0 0 0 0 0 0 0 0 0 0 0 127 0" result="hardAlpha"/>
<feOffset dy="2"/>
<feGaussianBlur stdDeviation="4"/>
<feComposite in2="hardAlpha" operator="out"/>
<feColorMatrix type="matrix" values="0 0 0 0 0 0 0 0 0 0 0 0 0 0 0 0 0 0 0.1 0"/>
<feBlend mode="normal" in2="BackgroundImageFix" result="effect1_dropShadow_610_91"/>
<feBlend mode="normal" in="SourceGraphic" in2="effect1_dropShadow_610_91" result="shape"/>
</filter>
<linearGradient id="paint0_linear_610_91" x1="32" y1="64" x2="32" y2="-8.58307e-06" gradientUnits="userSpaceOnUse">
<stop stop-color="#00AA88"/>
<stop offset="1" stop-color="#88FF88"/>
</linearGradient>
<linearGradient id="paint1_linear_610_91" x1="34.7963" y1="24.1012" x2="45.068" y2="24.1012" gradientUnits="userSpaceOnUse">
<stop stop-color="white"/>
<stop offset="1" stop-color="white" stop-opacity="0.7"/>
</linearGradient>
<linearGradient id="paint2_linear_610_91" x1="34.8052" y1="20.621" x2="52.0004" y2="20.621" gradientUnits="userSpaceOnUse">
<stop stop-color="white"/>
<stop offset="1" stop-color="white" stop-opacity="0.7"/>
</linearGradient>
<linearGradient id="paint3_linear_610_91" x1="12" y1="32.7728" x2="50.6068" y2="32.7728" gradientUnits="userSpaceOnUse">
<stop stop-color="white"/>
<stop offset="1" stop-color="white" stop-opacity="0.7"/>
</linearGradient>
</defs>
</svg>
