<svg width="64" height="64" viewBox="0 0 64 64" fill="none" xmlns="http://www.w3.org/2000/svg">
<g clip-path="url(#clip0_611_157)">
<g filter="url(#filter0_d_611_157)">
<rect width="64" height="64" fill="url(#paint0_linear_611_157)"/>
</g>
<path d="M46 20H42.828L40.828 18C39.67 16.842 37.638 16 36 16H28C26.362 16 24.33 16.842 23.172 18L21.172 20H18C14.692 20 12 22.692 12 26V42C12 45.308 14.692 48 18 48H46C49.308 48 52 45.308 52 42V26C52 22.692 49.308 20 46 20ZM32 40C28.134 40 25 36.864 25 33C25 29.132 28.134 26 32 26C35.866 26 39 29.132 39 33C39 36.864 35.866 40 32 40ZM44 30.598C42.562 30.598 41.4 29.438 41.4 28C41.4 26.562 42.562 25.398 44 25.398C45.438 25.398 46.6 26.562 46.6 28C46.6 29.438 45.438 30.598 44 30.598Z" fill="url(#paint1_linear_611_157)"/>
</g>
<defs>
<filter id="filter0_d_611_157" x="-4" y="-4" width="72" height="72" filterUnits="userSpaceOnUse" color-interpolation-filters="sRGB">
<feFlood flood-opacity="0" result="BackgroundImageFix"/>
<feColorMatrix in="SourceAlpha" type="matrix" values="0 0 0 0 0 0 0 0 0 0 0 0 0 0 0 0 0 0 127 0" result="hardAlpha"/>
<feOffset/>
<feGaussianBlur stdDeviation="2"/>
<feComposite in2="hardAlpha" operator="out"/>
<feColorMatrix type="matrix" values="0 0 0 0 0 0 0 0 0 0 0 0 0 0 0 0 0 0 0.1 0"/>
<feBlend mode="normal" in2="BackgroundImageFix" result="effect1_dropShadow_611_157"/>
<feBlend mode="normal" in="SourceGraphic" in2="effect1_dropShadow_611_157" result="shape"/>
</filter>
<linearGradient id="paint0_linear_611_157" x1="32" y1="64" x2="32" y2="0" gradientUnits="userSpaceOnUse">
<stop stop-color="#666688"/>
<stop offset="1" stop-color="#AAAAAA"/>
</linearGradient>
<linearGradient id="paint1_linear_611_157" x1="32" y1="16" x2="32" y2="48" gradientUnits="userSpaceOnUse">
<stop stop-color="white"/>
<stop offset="1" stop-color="white" stop-opacity="0.5"/>
</linearGradient>
<clipPath id="clip0_611_157">
<rect width="64" height="64" fill="white"/>
</clipPath>
</defs>
</svg>
