<svg width="64" height="64" viewBox="0 0 64 64" fill="none" xmlns="http://www.w3.org/2000/svg">
<g clip-path="url(#clip0_610_128)">
<g filter="url(#filter0_d_610_128)">
<rect width="64" height="64" fill="url(#paint0_linear_610_128)"/>
</g>
<path d="M22.5733 49.32V15.48H24.3733V49.32H22.5733ZM23.3293 45.216C21.4573 45.216 19.6573 44.916 17.9293 44.316C16.2253 43.692 14.9053 42.9 13.9693 41.94L15.0133 39.888C15.9013 40.752 17.0893 41.484 18.5773 42.084C20.0893 42.66 21.6733 42.948 23.3293 42.948C24.9133 42.948 26.1973 42.756 27.1813 42.372C28.1893 41.964 28.9213 41.424 29.3773 40.752C29.8573 40.08 30.0973 39.336 30.0973 38.52C30.0973 37.536 29.8093 36.744 29.2333 36.144C28.6813 35.544 27.9493 35.076 27.0373 34.74C26.1253 34.38 25.1173 34.068 24.0133 33.804C22.9093 33.54 21.8053 33.264 20.7013 32.976C19.5973 32.664 18.5773 32.256 17.6413 31.752C16.7293 31.248 15.9853 30.588 15.4093 29.772C14.8573 28.932 14.5813 27.84 14.5813 26.496C14.5813 25.248 14.9053 24.108 15.5533 23.076C16.2253 22.02 17.2453 21.18 18.6133 20.556C19.9813 19.908 21.7333 19.584 23.8693 19.584C25.2853 19.584 26.6893 19.788 28.0813 20.196C29.4733 20.58 30.6733 21.12 31.6813 21.816L30.7813 23.94C29.7013 23.22 28.5493 22.692 27.3253 22.356C26.1253 22.02 24.9613 21.852 23.8333 21.852C22.3213 21.852 21.0733 22.056 20.0893 22.464C19.1053 22.872 18.3733 23.424 17.8933 24.12C17.4373 24.792 17.2093 25.56 17.2093 26.424C17.2093 27.408 17.4853 28.2 18.0373 28.8C18.6133 29.4 19.3573 29.868 20.2693 30.204C21.2053 30.54 22.2253 30.84 23.3293 31.104C24.4333 31.368 25.5253 31.656 26.6053 31.968C27.7093 32.28 28.7173 32.688 29.6293 33.192C30.5653 33.672 31.3093 34.32 31.8613 35.136C32.4373 35.952 32.7253 37.02 32.7253 38.34C32.7253 39.564 32.3893 40.704 31.7173 41.76C31.0453 42.792 30.0133 43.632 28.6213 44.28C27.2533 44.904 25.4893 45.216 23.3293 45.216ZM33.7227 46.728V45H51.7227V46.728H33.7227Z" fill="url(#paint1_linear_610_128)"/>
</g>
<defs>
<filter id="filter0_d_610_128" x="-4" y="-4" width="72" height="72" filterUnits="userSpaceOnUse" color-interpolation-filters="sRGB">
<feFlood flood-opacity="0" result="BackgroundImageFix"/>
<feColorMatrix in="SourceAlpha" type="matrix" values="0 0 0 0 0 0 0 0 0 0 0 0 0 0 0 0 0 0 127 0" result="hardAlpha"/>
<feOffset/>
<feGaussianBlur stdDeviation="2"/>
<feComposite in2="hardAlpha" operator="out"/>
<feColorMatrix type="matrix" values="0 0 0 0 0 0 0 0 0 0 0 0 0 0 0 0 0 0 0.1 0"/>
<feBlend mode="normal" in2="BackgroundImageFix" result="effect1_dropShadow_610_128"/>
<feBlend mode="normal" in="SourceGraphic" in2="effect1_dropShadow_610_128" result="shape"/>
</filter>
<linearGradient id="paint0_linear_610_128" x1="32" y1="64" x2="32" y2="0" gradientUnits="userSpaceOnUse">
<stop stop-color="#404059"/>
<stop offset="1" stop-color="#585858"/>
</linearGradient>
<linearGradient id="paint1_linear_610_128" x1="32" y1="15" x2="32" y2="74" gradientUnits="userSpaceOnUse">
<stop stop-color="white"/>
<stop offset="1" stop-color="white" stop-opacity="0.4"/>
</linearGradient>
<clipPath id="clip0_610_128">
<rect width="64" height="64" fill="white"/>
</clipPath>
</defs>
</svg>
