<svg width="64" height="64" viewBox="0 0 64 64" fill="none" xmlns="http://www.w3.org/2000/svg">
<g clip-path="url(#clip0_610_108)">
<g filter="url(#filter0_d_610_108)">
<rect width="64" height="64" fill="url(#paint0_linear_610_108)"/>
</g>
<g filter="url(#filter1_d_610_108)">
<path opacity="0.4" d="M50.4603 36.74C50.0719 36.14 49.52 35.54 48.8047 35.16C48.2324 34.88 47.8645 34.42 47.5375 33.88C46.4951 32.16 47.1083 29.9 48.8456 28.88C50.8895 27.74 51.5436 25.2 50.358 23.22L48.9887 20.86C47.8236 18.88 45.2687 18.18 43.2452 19.34C41.4465 20.3 39.1369 19.66 38.0945 17.96C37.7676 17.4 37.5836 16.8 37.6245 16.2C37.6857 15.42 37.4405 14.68 37.0727 14.08C36.3164 12.84 34.9469 12 33.4344 12H30.5525C29.0605 12.04 27.6911 12.84 26.9348 14.08C26.5464 14.68 26.3216 15.42 26.3625 16.2C26.4033 16.8 26.2195 17.4 25.8924 17.96C24.85 19.66 22.5404 20.3 20.7622 19.34C18.7183 18.18 16.1838 18.88 14.9984 20.86L13.6289 23.22C12.4639 25.2 13.1179 27.74 15.1414 28.88C16.8787 29.9 17.4919 32.16 16.47 33.88C16.1225 34.42 15.7546 34.88 15.1823 35.16C14.4874 35.54 13.8742 36.14 13.5472 36.74C12.7909 37.98 12.8318 39.54 13.588 40.84L14.9984 43.24C15.7546 44.52 17.1649 45.32 18.6365 45.32C19.3314 45.32 20.149 45.12 20.8031 44.72C21.314 44.38 21.9272 44.26 22.6017 44.26C24.6252 44.26 26.3216 45.92 26.3625 47.9C26.3625 50.2 28.2429 52 30.6139 52H33.3936C35.7441 52 37.6245 50.2 37.6245 47.9C37.6857 45.92 39.3823 44.26 41.4057 44.26C42.0597 44.26 42.6729 44.38 43.2044 44.72C43.8584 45.12 44.6556 45.32 45.3709 45.32C46.8221 45.32 48.2324 44.52 48.9887 43.24L50.4193 40.84C51.1552 39.5 51.2165 37.98 50.4603 36.74Z" fill="url(#paint1_linear_610_108)"/>
<path d="M32.0383 39.151C28.011 39.151 24.7534 35.9868 24.7534 32.0127C24.7534 28.0385 28.011 24.849 32.0383 24.849C36.0655 24.849 39.2461 28.0385 39.2461 32.0127C39.2461 35.9868 36.0655 39.151 32.0383 39.151Z" fill="url(#paint2_linear_610_108)"/>
</g>
</g>
<defs>
<filter id="filter0_d_610_108" x="-4" y="-4" width="72" height="72" filterUnits="userSpaceOnUse" color-interpolation-filters="sRGB">
<feFlood flood-opacity="0" result="BackgroundImageFix"/>
<feColorMatrix in="SourceAlpha" type="matrix" values="0 0 0 0 0 0 0 0 0 0 0 0 0 0 0 0 0 0 127 0" result="hardAlpha"/>
<feOffset/>
<feGaussianBlur stdDeviation="2"/>
<feComposite in2="hardAlpha" operator="out"/>
<feColorMatrix type="matrix" values="0 0 0 0 0 0 0 0 0 0 0 0 0 0 0 0 0 0 0.1 0"/>
<feBlend mode="normal" in2="BackgroundImageFix" result="effect1_dropShadow_610_108"/>
<feBlend mode="normal" in="SourceGraphic" in2="effect1_dropShadow_610_108" result="shape"/>
</filter>
<filter id="filter1_d_610_108" x="5" y="6" width="54" height="56" filterUnits="userSpaceOnUse" color-interpolation-filters="sRGB">
<feFlood flood-opacity="0" result="BackgroundImageFix"/>
<feColorMatrix in="SourceAlpha" type="matrix" values="0 0 0 0 0 0 0 0 0 0 0 0 0 0 0 0 0 0 127 0" result="hardAlpha"/>
<feOffset dy="2"/>
<feGaussianBlur stdDeviation="4"/>
<feComposite in2="hardAlpha" operator="out"/>
<feColorMatrix type="matrix" values="0 0 0 0 0 0 0 0 0 0 0 0 0 0 0 0 0 0 0.1 0"/>
<feBlend mode="normal" in2="BackgroundImageFix" result="effect1_dropShadow_610_108"/>
<feBlend mode="normal" in="SourceGraphic" in2="effect1_dropShadow_610_108" result="shape"/>
</filter>
<linearGradient id="paint0_linear_610_108" x1="32" y1="64" x2="32" y2="0" gradientUnits="userSpaceOnUse">
<stop stop-color="#666688"/>
<stop offset="1" stop-color="#AAAAAA"/>
</linearGradient>
<linearGradient id="paint1_linear_610_108" x1="32" y1="52" x2="32" y2="12" gradientUnits="userSpaceOnUse">
<stop stop-color="white" stop-opacity="0.7"/>
<stop offset="1" stop-color="white"/>
</linearGradient>
<linearGradient id="paint2_linear_610_108" x1="31.9998" y1="39.151" x2="31.9998" y2="24.849" gradientUnits="userSpaceOnUse">
<stop stop-color="white" stop-opacity="0.7"/>
<stop offset="1" stop-color="white"/>
</linearGradient>
<clipPath id="clip0_610_108">
<rect width="64" height="64" fill="white"/>
</clipPath>
</defs>
</svg>
