<svg width="64" height="64" viewBox="0 0 64 64" fill="none" xmlns="http://www.w3.org/2000/svg">
<g clip-path="url(#clip0_611_189)">
<g filter="url(#filter0_d_611_189)">
<rect width="64" height="64" fill="url(#paint0_linear_611_189)"/>
</g>
<path d="M36.9163 20.2308H47.6223C48.3695 20.2307 49.1085 20.3821 49.7922 20.6754C50.4759 20.9686 51.0893 21.3973 51.5932 21.934C52.0971 22.4707 52.4805 23.1036 52.7189 23.7925C52.9573 24.4814 53.0456 25.211 52.9779 25.9349L51.2653 44.2426C51.1439 45.5422 50.5275 46.7508 49.5371 47.631C48.5467 48.5112 47.2538 48.9995 45.9123 49H18.0881C16.7466 48.9995 15.4538 48.5112 14.4634 47.631C13.473 46.7508 12.8565 45.5422 12.7351 44.2426L11.0225 25.9349C10.9079 24.7234 11.2333 23.5112 11.942 22.5088L11.8371 20.2308C11.8371 18.8435 12.4037 17.513 13.4121 16.5321C14.4205 15.5511 15.7882 15 17.2143 15H27.0868C28.5128 15.0003 29.8803 15.5516 30.8885 16.5326L33.1146 18.6982C34.1228 19.6792 35.4903 20.2305 36.9163 20.2308ZM14.5419 20.5446C15.1172 20.3406 15.7356 20.2308 16.3809 20.2308H30.8885L28.9877 18.3817C28.4836 17.8912 27.7998 17.6155 27.0868 17.6154H17.2143C16.51 17.6153 15.8338 17.884 15.331 18.3638C14.8283 18.8435 14.5391 19.4961 14.5257 20.1811L14.5419 20.5446Z" fill="url(#paint1_linear_611_189)"/>
</g>
<defs>
<filter id="filter0_d_611_189" x="-4" y="-4" width="72" height="72" filterUnits="userSpaceOnUse" color-interpolation-filters="sRGB">
<feFlood flood-opacity="0" result="BackgroundImageFix"/>
<feColorMatrix in="SourceAlpha" type="matrix" values="0 0 0 0 0 0 0 0 0 0 0 0 0 0 0 0 0 0 127 0" result="hardAlpha"/>
<feOffset/>
<feGaussianBlur stdDeviation="2"/>
<feComposite in2="hardAlpha" operator="out"/>
<feColorMatrix type="matrix" values="0 0 0 0 0 0 0 0 0 0 0 0 0 0 0 0 0 0 0.1 0"/>
<feBlend mode="normal" in2="BackgroundImageFix" result="effect1_dropShadow_611_189"/>
<feBlend mode="normal" in="SourceGraphic" in2="effect1_dropShadow_611_189" result="shape"/>
</filter>
<linearGradient id="paint0_linear_611_189" x1="32" y1="64" x2="32" y2="0" gradientUnits="userSpaceOnUse">
<stop stop-color="#796F4C"/>
<stop offset="1" stop-color="#DBFF00"/>
</linearGradient>
<linearGradient id="paint1_linear_611_189" x1="32" y1="15" x2="32" y2="49" gradientUnits="userSpaceOnUse">
<stop stop-color="white"/>
<stop offset="1" stop-color="white" stop-opacity="0.5"/>
</linearGradient>
<clipPath id="clip0_611_189">
<rect width="64" height="64" fill="white"/>
</clipPath>
</defs>
</svg>
