<svg width="64" height="64" viewBox="0 0 64 64" fill="none" xmlns="http://www.w3.org/2000/svg">
<g clip-path="url(#clip0_611_198)">
<rect width="64" height="64" fill="white"/>
<g filter="url(#filter0_d_611_198)">
<rect width="64" height="64" fill="url(#paint0_linear_611_198)"/>
</g>
<path d="M23.1111 19.8111V15.3667C23.1111 12.5889 22.5222 12.0333 19.7778 12.0333L15.3333 12C12.6889 12 12 12.6233 12 15.3333V19.7778C12 22.5233 12.5556 23.1111 15.3333 23.1111H19.7778C22.5556 23.1111 23.1111 22.5556 23.1111 19.8111ZM23.1111 34.2544V29.81C23.1111 27.0322 22.5222 26.4767 19.7778 26.4767L15.3333 26.4433C12.6889 26.4433 12 27.0667 12 29.7767V34.2211C12 36.9667 12.5556 37.5544 15.3333 37.5544H19.7778C22.5556 37.5556 23.1111 37 23.1111 34.2544ZM23.1111 48.6989V44.2544C23.1111 41.4767 22.5222 40.9211 19.7778 40.9211L15.3333 40.8889C12.6889 40.8889 12 41.5122 12 44.2222V48.6667C12 51.4122 12.5556 52 15.3333 52H19.7778C22.5556 52 23.1111 51.4444 23.1111 48.6989ZM37.5556 19.8111V15.3667C37.5556 12.5889 36.9678 12.0333 34.2222 12.0333L29.7778 12C27.1333 12 26.4444 12.6233 26.4444 15.3333V19.7778C26.4444 22.5233 27 23.1111 29.7778 23.1111H34.2222C37 23.1111 37.5556 22.5556 37.5556 19.8111ZM37.5556 34.2544V29.81C37.5556 27.0322 36.9678 26.4767 34.2222 26.4767L29.7778 26.4433C27.1333 26.4433 26.4444 27.0667 26.4444 29.7767V34.2211C26.4444 36.9667 27 37.5544 29.7778 37.5544H34.2222C37 37.5556 37.5556 37 37.5556 34.2544ZM37.5556 48.6989V44.2544C37.5556 41.4767 36.9678 40.9211 34.2222 40.9211L29.7778 40.8889C27.1333 40.8889 26.4444 41.5122 26.4444 44.2222V48.6667C26.4444 51.4122 27 52 29.7778 52H34.2222C37 52 37.5556 51.4444 37.5556 48.6989ZM52 19.8111V15.3667C52 12.5889 51.4122 12.0333 48.6667 12.0333L44.2222 12C41.5778 12 40.8889 12.6233 40.8889 15.3333V19.7778C40.8889 22.5233 41.4444 23.1111 44.2222 23.1111H48.6667C51.4444 23.1111 52 22.5556 52 19.8111ZM52 34.2544V29.81C52 27.0322 51.4122 26.4767 48.6667 26.4767L44.2222 26.4433C41.5778 26.4433 40.8889 27.0667 40.8889 29.7767V34.2211C40.8889 36.9667 41.4444 37.5544 44.2222 37.5544H48.6667C51.4444 37.5556 52 37 52 34.2544ZM52 48.6989V44.2544C52 41.4767 51.4122 40.9211 48.6667 40.9211L44.2222 40.8889C41.5778 40.8889 40.8889 41.5122 40.8889 44.2222V48.6667C40.8889 51.4122 41.4444 52 44.2222 52H48.6667C51.4444 52 52 51.4444 52 48.6989Z" fill="url(#paint1_linear_611_198)"/>
</g>
<defs>
<filter id="filter0_d_611_198" x="-4" y="-4" width="72" height="72" filterUnits="userSpaceOnUse" color-interpolation-filters="sRGB">
<feFlood flood-opacity="0" result="BackgroundImageFix"/>
<feColorMatrix in="SourceAlpha" type="matrix" values="0 0 0 0 0 0 0 0 0 0 0 0 0 0 0 0 0 0 127 0" result="hardAlpha"/>
<feOffset/>
<feGaussianBlur stdDeviation="2"/>
<feComposite in2="hardAlpha" operator="out"/>
<feColorMatrix type="matrix" values="0 0 0 0 0 0 0 0 0 0 0 0 0 0 0 0 0 0 0.1 0"/>
<feBlend mode="normal" in2="BackgroundImageFix" result="effect1_dropShadow_611_198"/>
<feBlend mode="normal" in="SourceGraphic" in2="effect1_dropShadow_611_198" result="shape"/>
</filter>
<linearGradient id="paint0_linear_611_198" x1="32" y1="64" x2="32" y2="0" gradientUnits="userSpaceOnUse">
<stop stop-color="#AA0088"/>
<stop offset="1" stop-color="#FFAA88"/>
</linearGradient>
<linearGradient id="paint1_linear_611_198" x1="32" y1="12" x2="32" y2="52" gradientUnits="userSpaceOnUse">
<stop stop-color="white"/>
<stop offset="1" stop-color="white" stop-opacity="0.5"/>
</linearGradient>
<clipPath id="clip0_611_198">
<rect width="64" height="64" fill="white"/>
</clipPath>
</defs>
</svg>
